<svg width="16" height="16" viewBox="0 0 16 16" fill="none" xmlns="http://www.w3.org/2000/svg">
<g clip-path="url(#clip0_23966_625)">
<rect width="16" height="16" rx="4" fill="#4A0221"/>
<path d="M10.0969 6.85275V8.85249C8.11422 8.85249 6.49867 10.467 6.49867 12.4507V13.6012H4.5V12.4507C4.5 11.8729 4.58833 11.3162 4.75116 10.7916C5.07363 9.75605 5.68771 8.84823 6.49867 8.16711C7.31389 7.48066 8.32707 7.02303 9.43815 6.89213C9.65419 6.86659 9.87343 6.85382 10.0969 6.85382V6.85275Z" fill="url(#paint0_linear_23966_625)"/>
<path d="M11.5049 2.40625V4.40599H10.0969C8.48671 4.40599 7.11914 5.46918 6.66257 6.93147C5.74944 7.45508 4.99807 8.22773 4.5 9.15789V8.00318C4.5 4.91683 7.01058 2.40625 10.0969 2.40625H11.5049Z" fill="url(#paint1_linear_23966_625)"/>
</g>
<defs>
<linearGradient id="paint0_linear_23966_625" x1="4.13306" y1="13.2343" x2="10.3056" y2="7.06138" gradientUnits="userSpaceOnUse">
<stop stop-color="#A31551"/>
<stop offset="1" stop-color="#FC9385"/>
</linearGradient>
<linearGradient id="paint1_linear_23966_625" x1="4.04075" y1="8.79081" x2="10.0644" y2="1.25482" gradientUnits="userSpaceOnUse">
<stop stop-color="#A31551"/>
<stop offset="1" stop-color="#FC9385"/>
</linearGradient>
<clipPath id="clip0_23966_625">
<rect width="16" height="16" fill="white"/>
</clipPath>
</defs>
</svg>
